<?xml version="1.0" encoding="UTF-8" standalone="no"?><!DOCTYPE svg PUBLIC "-//W3C//DTD SVG 1.1//EN" "http://www.w3.org/Graphics/SVG/1.1/DTD/svg11.dtd"><svg width="100%" height="100%" viewBox="0 0 600 114" version="1.1" xmlns="http://www.w3.org/2000/svg" xmlns:xlink="http://www.w3.org/1999/xlink" xml:space="preserve" xmlns:serif="http://www.serif.com/" style="fill-rule:evenodd;clip-rule:evenodd;stroke-linecap:round;stroke-linejoin:round;stroke-miterlimit:1.5;"><path d="M600.021,24.511c0,-4.405 -3.576,-7.982 -7.982,-7.982l-584.057,0c-4.405,0 -7.982,3.577 -7.982,7.982l0,67.397c0,4.406 3.577,7.982 7.982,7.982l584.057,0c4.406,0 7.982,-3.576 7.982,-7.982l0,-67.397Z" style="fill:#111;"/><path d="M160.511,79.817l-19.785,0.021l-0.016,-43.225l20.569,-0.032l2.25,0.188c9.094,1.953 15.359,9.788 15.359,21.566c-0,11.824 -7.607,21.423 -16.976,21.423c-0.476,0 -0.936,0.107 -1.401,0.059Zm0.723,-34.648c5.612,2.537 7.873,5.736 7.873,13.154c0,7.447 -2.671,10.912 -6.82,12.853c-0.447,0.209 -2.163,0.454 -2.677,0.445l-9.466,-0.011l-0.016,-26.718l8.912,-0.055l2.194,0.332Z" style="fill:#fff;"/><g><path d="M293.995,92.284l11.256,13.322l36.428,-0.11l12.127,-13.218l-59.811,0.006Z" style="fill:#111;stroke:#000;stroke-width:1px;"/><path d="M360.085,88.075l-18.825,19.726l-35.707,0.13l-18.321,-20.266l-0.04,-35.615l3.233,-52.05l18.215,38.843c0,0 6.24,-2.718 14.306,-2.702c7.548,0.016 12.371,2.044 12.371,2.044l14.288,-38.004l9.156,51.341l-0.013,21.548l1.253,-0.057m-51.457,-16.261l6.795,6.747l-15.043,0.016l-4.463,-6.895l12.711,0.132Zm35.79,6.703l-14.374,-0.051l6.778,-6.739c0,-0 7.952,-0.013 11.928,-0.019m-8.56,47.266l15.606,-17.068l-0.043,-11.918l-27.978,0.03c0,0 -1.542,-2.252 -5.321,-2.23c-4.232,0.025 -5.444,2.214 -5.444,2.214l-26.601,-0.07l-0.074,11.652l16.51,17.372l33.345,0.018Z" style="fill:#00bcc3;"/></g><path d="M19.825,36.034l24.775,-0.037c0,-0 9.954,0.901 10.231,9.891c0.277,8.989 -6.082,9.432 -5.551,10.021c0.531,0.588 5.525,1.606 7.361,7.798c1.835,6.192 -1.137,13.951 -10.312,16.449c-1.689,0.46 -26.383,0.186 -26.383,0.186l-0.121,-44.308Zm9.997,24.669l11.334,0.058c0,-0 1.517,-0.056 2.49,0.349c1.811,0.755 3.43,1.769 3.572,5.103c0.02,0.475 0.061,1.496 0.007,1.896c-0.535,3.919 -4.01,4.239 -4.535,4.381c-0.117,0.031 -0.832,0.039 -1.711,0.039c-3.45,0 -11.223,-0.007 -11.223,-0.007l0.066,-11.819Zm-0.098,-17.394l10.241,-0.013l1.087,0.025c0,0 4.195,0.626 4.151,5.08c-0.044,4.423 -2.976,4.905 -4.059,5.165c-0.152,0.036 -0.92,0.128 -1.361,0.149c-2.693,0.129 -10.01,-0.018 -10.01,-0.018l-0.049,-10.388Z" style="fill:#fff;"/><path d="M58.93,80.138l16.903,-44.099l9.98,0.044l16.713,44.084l-10.063,-0.013l-3.605,-9.634l-16.328,-0.066l-3.882,9.927l-9.718,-0.243Zm16.199,-17.613l5.147,-14.886l1,-0.006l5.079,15.102l-11.226,-0.21Z" style="fill:#fff;"/><path d="M111.633,80.233l0.028,-36.214l-13.101,-0.07l-0.022,-7.774l36.102,0.039l0.09,7.739l-13.281,0.033l0.012,36.258l-9.828,-0.011Z" style="fill:#fff;"/><path d="M412.255,62.904c-0.012,0.07 -0.025,0.139 -0.037,0.208c-0.911,5.015 -2.529,9.784 -5.869,12.879c-3.251,3.01 -8.169,4.413 -13.059,4.413c-6.31,0 -12.374,-2.62 -16.196,-7.348c-3.141,-3.887 -4.636,-9.319 -4.636,-14.846c0,-6.725 2.443,-13.144 6.883,-17.216c3.648,-3.345 8.764,-4.979 13.949,-4.979c5.165,-0 10.2,1.532 13.516,4.854c2.58,2.585 4.259,6.441 5.306,10.292l-9.273,0.063c-1.461,-4.495 -4.615,-7.281 -9.756,-7.281c-7.489,-0 -11.136,6.19 -11.136,14.168c0,7.979 3.66,14.185 11.148,14.185c5.862,-0 8.771,-3.676 9.908,-9.227c0.013,-0.062 0.025,-0.125 0.037,-0.188l9.215,0.023Z" style="fill:#f5f5f5;"/><path d="M273.235,64.522c-0.954,4.489 -2.566,8.666 -5.592,11.469c-3.251,3.01 -8.169,4.413 -13.059,4.413c-6.31,0 -12.374,-2.62 -16.195,-7.348c-3.142,-3.887 -4.636,-9.319 -4.636,-14.846c-0,-6.725 2.442,-13.144 6.883,-17.216c3.647,-3.345 8.763,-4.979 13.948,-4.979c5.165,-0 10.2,1.532 13.516,4.854c0.91,0.912 1.708,1.982 2.406,3.155l-6.665,6.382c-1.568,-4.012 -4.642,-6.463 -9.464,-6.463c-7.488,-0 -11.135,6.19 -11.135,14.168c-0,7.979 3.659,14.185 11.148,14.185c5.333,-0 8.221,-3.042 9.555,-7.771l-7.318,0.002l0,-7.099l18.233,-0.004l-1.62,7.098l-0.005,-0Z" style="fill:#f5f5f5;"/><path d="M437.495,35.566c12.508,0.18 21.443,9.799 21.116,22.645c-0.331,13.001 -9.049,22.696 -21.116,22.644c-12.114,-0.051 -21.033,-9.756 -21.116,-22.644c-0.083,-13.016 8.815,-22.822 21.116,-22.645Zm0.005,8.014c6.644,-0 11.299,6.312 11.299,14.55c0,8.239 -4.651,14.359 -11.295,14.359c-6.644,-0 -11.45,-6.071 -11.45,-14.31c0,-8.238 4.802,-14.599 11.446,-14.599Z" style="fill:#fff;"/><path d="M206.428,35.566c12.509,0.18 21.443,9.799 21.116,22.645c-0.331,13.001 -9.048,22.696 -21.116,22.644c-12.114,-0.051 -21.033,-9.756 -21.115,-22.644c-0.084,-13.016 8.815,-22.822 21.115,-22.645Zm0.005,8.014c6.644,-0 11.3,6.312 11.3,14.55c-0,8.239 -4.652,14.359 -11.296,14.359c-6.644,-0 -11.449,-6.071 -11.449,-14.31c-0,-8.238 4.801,-14.599 11.445,-14.599Z" style="fill:#fff;"/><path d="M484.376,79.817l-19.784,0.021l-0.016,-43.225l20.568,-0.032l2.251,0.188c9.094,1.953 15.358,9.788 15.358,21.566c0,11.824 -7.606,21.423 -16.975,21.423c-0.476,0 -0.936,0.107 -1.402,0.059Zm0.723,-34.648c5.613,2.537 7.874,5.736 7.874,13.154c-0,7.447 -2.671,10.912 -6.82,12.853c-0.448,0.209 -2.164,0.454 -2.678,0.445l-9.466,-0.011l-0.016,-26.718l8.913,-0.055l2.193,0.332Z" style="fill:#fff;"/><path d="M540.486,36.892l-31.656,-0.04l-0.048,42.715l32.287,-0.027l-0.191,-8.075l-22.685,0.028l0.048,-10.393l20.464,-0.018l0.009,-7.159l-20.744,0.084l-0.044,-9.294l22.611,0.179l-0.051,-8Z" style="fill:#fff;"/><path d="M571.661,49.736l9.457,0.024c0,0 0.588,-10.827 -12.271,-13.567c-4.607,-0.982 -8.877,0.035 -8.877,0.035c-0,0 -7.555,1.307 -10.727,7.657c-2.703,5.412 -0.307,10.213 0.232,10.81c0.436,0.485 2.591,4.775 14.187,7.09c10.384,2.073 9.77,5.719 9.719,6.448c-0.052,0.729 -0.317,4.036 -5.029,4.738c-4.712,0.702 -11.932,0.236 -12.499,-6.431c-0.67,-7.874 -0.048,-0.993 -0.048,-0.993l-9.255,-0.003c0,0 -0.43,10.244 10.775,14.024c4.805,1.62 10.588,1.087 13.198,0.567c2.61,-0.519 9.555,-3.017 11.262,-8.328c0.492,-1.531 1.349,-4.345 -0.109,-9.84c-0.459,-1.73 -3.74,-5.685 -11.574,-7.316c-1.241,-0.259 -8.842,-1.488 -12.271,-4.543c-0.557,-0.496 -0.752,-3.609 0.153,-4.653c0.573,-0.661 2.11,-1.894 3.172,-1.881c0.506,0.006 5.541,-0.066 5.541,-0.066c0,-0 5.252,0.959 4.964,6.228Z" style="fill:#fff;"/></svg>