<?xml version="1.0" encoding="UTF-8" standalone="no"?>
<!DOCTYPE svg PUBLIC "-//W3C//DTD SVG 1.1//EN" "http://www.w3.org/Graphics/SVG/1.1/DTD/svg11.dtd">
<svg width="100%" height="100%" viewBox="0 0 463 108" version="1.1" xmlns="http://www.w3.org/2000/svg" xmlns:xlink="http://www.w3.org/1999/xlink" xml:space="preserve" xmlns:serif="http://www.serif.com/" style="fill-rule:evenodd;clip-rule:evenodd;stroke-linecap:round;stroke-linejoin:round;stroke-miterlimit:1.5;">
    <g transform="matrix(1.01377,0,0,0.769049,-1160.92,-49.3561)">
        <path d="M1601.86,96.05C1601.86,90.322 1598.33,85.671 1593.99,85.671L1153.03,85.671C1148.68,85.671 1145.15,90.322 1145.15,96.05L1145.15,183.687C1145.15,189.415 1148.68,194.066 1153.03,194.066L1593.99,194.066C1598.33,194.066 1601.86,189.415 1601.86,183.687L1601.86,96.05Z" style="fill:rgb(17,17,17);"/>
    </g>
    <g>
        <g transform="matrix(1.17098,0,0,1.56242,-33.4763,-54.3209)">
            <path d="M162.659,93.832L172.272,102.359L203.38,102.289L213.737,93.828L162.659,93.832Z" style="fill:rgb(17,17,17);stroke:black;stroke-width:0.72px;"/>
        </g>
        <g transform="matrix(1.37917,0,0,1.37917,-1643.82,-136.985)">
            <path d="M1353.65,163.186L1340,177.488L1314.11,177.583L1300.83,162.888L1300.8,137.064L1303.14,99.325L1316.35,127.489C1316.35,127.489 1320.87,125.518 1326.72,125.53C1332.19,125.541 1335.69,127.012 1335.69,127.012L1346.05,99.456L1352.69,136.682L1352.68,152.306L1353.59,152.265M1316.28,140.474L1321.21,145.366L1310.3,145.378L1307.06,140.379L1316.28,140.474ZM1342.23,145.334L1331.81,145.297L1336.72,140.411C1336.72,140.411 1342.49,140.402 1345.37,140.398M1339.16,174.669L1350.48,162.293L1350.45,153.652L1330.16,153.674C1330.16,153.674 1329.05,152.041 1326.31,152.057C1323.24,152.075 1322.36,153.662 1322.36,153.662L1303.07,153.611L1303.02,162.06L1314.99,174.655L1339.16,174.669Z" style="fill:rgb(0,188,195);"/>
        </g>
    </g>
    <g transform="matrix(1.02859,0,0,1.02859,-1178.88,-85.0625)">
        <path d="M1165.38,117.73L1189.47,117.694C1189.47,117.694 1199.15,118.57 1199.42,127.31C1199.69,136.049 1193.51,136.48 1194.02,137.052C1194.54,137.624 1199.39,138.614 1201.18,144.634C1202.96,150.654 1200.07,158.197 1191.15,160.625C1189.51,161.073 1165.5,160.806 1165.5,160.806L1165.38,117.73ZM1175.1,141.714L1186.12,141.769C1186.12,141.769 1187.6,141.715 1188.54,142.109C1190.3,142.843 1191.88,143.828 1192.02,147.07C1192.04,147.532 1192.08,148.525 1192.02,148.914C1191.5,152.723 1188.12,153.035 1187.61,153.172C1187.5,153.203 1186.81,153.211 1185.95,153.211C1182.6,153.211 1175.04,153.203 1175.04,153.203L1175.1,141.714ZM1175.01,124.802L1184.96,124.791L1186.02,124.815C1186.02,124.815 1190.1,125.423 1190.06,129.753C1190.01,134.054 1187.16,134.522 1186.11,134.774C1185.96,134.81 1185.22,134.899 1184.79,134.92C1182.17,135.044 1175.06,134.902 1175.06,134.902L1175.01,124.802Z" style="fill:white;"/>
    </g>
    <g transform="matrix(1.02859,0,0,1.02859,-1178.88,-85.1081)">
        <path d="M1203.4,160.653L1219.84,117.779L1229.54,117.822L1245.79,160.68L1236,160.668L1232.5,151.302L1216.62,151.237L1212.85,160.888L1203.4,160.653ZM1219.15,143.529L1224.15,129.057L1225.13,129.051L1230.07,143.733L1219.15,143.529Z" style="fill:white;"/>
    </g>
    <g transform="matrix(1.02859,0,0,1.02859,-1178.88,-84.9507)">
        <path d="M1254.64,160.592L1254.67,125.385L1241.93,125.316L1241.91,117.758L1277.01,117.797L1277.1,125.32L1264.18,125.353L1264.19,160.603L1254.64,160.592Z" style="fill:white;"/>
    </g>
    <g transform="matrix(1.02859,0,0,1.02859,-1178.88,-84.974)">
        <path d="M1416.63,143.767C1416.62,143.835 1416.61,143.902 1416.59,143.969C1415.71,148.845 1414.14,153.482 1410.89,156.49C1407.73,159.417 1402.95,160.781 1398.19,160.781C1392.06,160.781 1386.16,158.233 1382.45,153.637C1379.39,149.858 1377.94,144.577 1377.94,139.203C1377.94,132.665 1380.32,126.425 1384.63,122.466C1388.18,119.215 1393.15,117.625 1398.19,117.625C1403.21,117.625 1408.11,119.115 1411.33,122.345C1413.84,124.858 1415.47,128.607 1416.49,132.35L1407.48,132.412C1406.06,128.042 1402.99,125.333 1397.99,125.333C1390.71,125.333 1387.16,131.351 1387.16,139.108C1387.16,146.865 1390.72,152.898 1398,152.898C1403.7,152.898 1406.53,149.325 1407.63,143.928C1407.65,143.867 1407.66,143.806 1407.67,143.745L1416.63,143.767Z" style="fill:rgb(245,245,245);"/>
    </g>
    <g transform="matrix(1.02859,0,0,1.02859,-1178.88,-85.0221)">
        <path d="M1441.17,117.236C1453.33,117.411 1462.02,126.762 1461.7,139.251C1461.38,151.891 1452.9,161.316 1441.17,161.266C1429.39,161.216 1420.72,151.781 1420.64,139.251C1420.56,126.598 1429.21,117.064 1441.17,117.236ZM1441.17,125.027C1447.63,125.027 1452.16,131.164 1452.16,139.173C1452.16,147.182 1447.64,153.132 1441.18,153.132C1434.72,153.132 1430.05,147.23 1430.05,139.221C1430.05,131.211 1434.71,125.027 1441.17,125.027Z" style="fill:white;"/>
    </g>
    <g transform="matrix(1.02859,0,0,1.02859,-1178.88,-84.8644)">
        <path d="M1486.75,160.103L1467.51,160.124L1467.5,118.1L1487.49,118.07L1489.68,118.252C1498.52,120.151 1504.61,127.768 1504.61,139.219C1504.61,150.714 1497.22,160.046 1488.11,160.046C1487.65,160.046 1487.2,160.15 1486.75,160.103ZM1487.45,126.419C1492.91,128.885 1495.1,131.995 1495.1,139.207C1495.1,146.447 1492.51,149.816 1488.47,151.703C1488.04,151.906 1486.37,152.144 1485.87,152.135L1476.67,152.125L1476.65,126.149L1485.32,126.096L1487.45,126.419Z" style="fill:white;"/>
    </g>
    <g transform="matrix(1.02859,0,0,1.02859,-1178.88,-84.9468)">
        <path d="M1541.3,118.451L1510.52,118.413L1510.47,159.94L1541.86,159.915L1541.68,152.064L1519.62,152.091L1519.67,141.987L1539.57,141.97L1539.57,135.009L1519.41,135.09L1519.36,126.055L1541.35,126.229L1541.3,118.451Z" style="fill:white;"/>
    </g>
    <g transform="matrix(1.02859,0,0,1.02859,-1178.88,-84.7847)">
        <path d="M1569.66,130.781L1578.86,130.805C1578.86,130.805 1579.43,120.278 1566.92,117.614C1562.45,116.66 1558.29,117.649 1558.29,117.649C1558.29,117.649 1550.95,118.919 1547.87,125.093C1545.24,130.354 1547.57,135.021 1548.09,135.603C1548.52,136.074 1550.61,140.244 1561.88,142.495C1571.98,144.511 1571.38,148.055 1571.33,148.764C1571.28,149.473 1571.02,152.688 1566.44,153.37C1561.86,154.052 1554.84,153.6 1554.29,147.118C1553.64,139.463 1554.25,146.152 1554.25,146.152L1545.25,146.15C1545.25,146.15 1544.83,156.109 1555.72,159.784C1560.39,161.359 1566.02,160.84 1568.55,160.335C1571.09,159.83 1577.84,157.402 1579.5,152.238C1579.98,150.751 1580.81,148.014 1579.4,142.672C1578.95,140.99 1575.76,137.145 1568.14,135.559C1566.94,135.308 1559.55,134.113 1556.22,131.143C1555.67,130.661 1555.48,127.634 1556.36,126.619C1556.92,125.976 1558.41,124.777 1559.45,124.79C1559.94,124.796 1564.84,124.726 1564.84,124.726C1564.84,124.726 1569.94,125.658 1569.66,130.781Z" style="fill:white;"/>
    </g>
</svg>
